# xmcd
#
# Track frame offsets:
# 150
# 15447
# 36868
# 56405
#
# Disc length: 992 seconds
#
#
# Revision: 0
# Processed by: cddbd v1.5.1PL2 Copyright (c) Steve Scherf et al.
# Submitted via: FreeRIP 2.944 
#
DISCID=2503de04
DTITLE=Alex Lloyd - Single - Amazing
DYEAR=2001
DGENRE=Aussie
TTITLE0=Amazing
TTITLE1=Downtown
TTITLE2=My Way Home
TTITLE3=What A Year
EXTD=
EXTT0=
EXTT1=
EXTT2=
EXTT3=
PLAYORDER=
